<svg width="200" height="190" viewBox="0 0 200 190" class="css-1j8o68f"><defs id="SvgjsDefs1092"></defs><g id="SvgjsG1093" featurekey="nameContainer" transform="matrix(1,0,0,1,0,0)" fill="#fafbd4"><rect y="0" height="1" width="1" opacity="0"></rect><rect y="185" width="200" height="5"></rect></g><g id="SvgjsG1094" featurekey="nameFeature-0" transform="matrix(5.512174530605464,0,0,5.512174530605464,-7.222052251732253,-47.88217049862507)" fill="#fafbd4"><path d="M12.968 14.678999999999998 l0 7.1658 l-3.6631 0 l0 -5.5882 l-5.4011 0 l1.0695 0.82888 l0 18.717 l4.3316 0 l0 -11.07 l-1.0963 -0.82888 l4.7594 0 l0 16.123 l-9.0107 0 c-1.4973 0 -2.6471 -1.1497 -2.6471 -2.6471 l0 -22.701 c0 -1.4171 1.1497 -2.6471 2.6471 -2.6471 l6.3636 0 c1.4973 0 2.6471 1.2299 2.6471 2.6471 z M18.128304278074864 35.8021 l4.3316 0 l0 -19.545 l-5.4011 0 l1.0695 0.82888 l0 18.717 z M26.122604278074867 14.678999999999998 l0 22.701 c0 1.4973 -1.1497 2.6471 -2.6471 2.6471 l-6.3636 0 c-1.4973 0 -2.6471 -1.1497 -2.6471 -2.6471 l0 -22.701 c0 -1.4171 1.1497 -2.6471 2.6471 -2.6471 l6.3636 0 c1.4973 0 2.6471 1.2299 2.6471 2.6471 z M27.753970588235294 12.780999999999999 l-0.66845 -0.82888 l10.508 0 l0 4.2246 l-7.246 0 l1.0963 0.82888 l0 6.8449 l4.3048 0 l0 4.2246 l-5.4011 0 l1.0963 0.82888 l0 11.043 l-3.6898 0 l0 -27.166 z"></path></g></svg>